<svg width="41" height="40" viewBox="0 0 41 40" fill="none" xmlns="http://www.w3.org/2000/svg">
<path d="M28.8334 15.04C28.8334 11.01 27.8934 10 24.1134 10H16.5534C12.7734 10 11.8334 11.01 11.8334 15.04V26.3C11.8334 28.96 13.2934 29.59 15.0634 27.69L15.0734 27.68C15.8934 26.81 17.1434 26.88 17.8534 27.83L18.8634 29.18C19.6734 30.25 20.9834 30.25 21.7934 29.18L22.8034 27.83C23.5234 26.87 24.7734 26.8 25.5934 27.68C27.3734 29.58 28.8234 28.95 28.8234 26.29V19M16.3334 15H24.3334M17.3334 19H23.3334" stroke="#8E6CEF" stroke-width="1.5" stroke-linecap="round" stroke-linejoin="round"/>
</svg>
